<svg width="24" height="24" viewBox="0 0 24 24" fill="none" xmlns="http://www.w3.org/2000/svg">
<path d="M12 16.5C9.51472 16.5 7.5 14.4853 7.5 12C7.5 9.51472 9.51472 7.5 12 7.5C14.4853 7.5 16.5 9.51472 16.5 12C16.5 14.4853 14.4853 16.5 12 16.5ZM12 18C15.3137 18 18 15.3137 18 12C18 8.68629 15.3137 6 12 6C8.68629 6 6 8.68629 6 12C6 15.3137 8.68629 18 12 18Z" fill="#666666"/>
<path d="M12.75 3.75C12.75 4.16421 12.4142 4.5 12 4.5C11.5858 4.5 11.25 4.16421 11.25 3.75C11.25 3.33579 11.5858 3 12 3C12.4142 3 12.75 3.33579 12.75 3.75Z" fill="#666666"/>
<path d="M12.75 20.25C12.75 20.6642 12.4142 21 12 21C11.5858 21 11.25 20.6642 11.25 20.25C11.25 19.8358 11.5858 19.5 12 19.5C12.4142 19.5 12.75 19.8358 12.75 20.25Z" fill="#666666"/>
<path d="M20.25 12.75C19.8358 12.75 19.5 12.4142 19.5 12C19.5 11.5858 19.8358 11.25 20.25 11.25C20.6642 11.25 21 11.5858 21 12C21 12.4142 20.6642 12.75 20.25 12.75Z" fill="#666666"/>
<path d="M3.75 12.75C3.33579 12.75 3 12.4142 3 12C3 11.5858 3.33579 11.25 3.75 11.25C4.16421 11.25 4.5 11.5858 4.5 12C4.5 12.4142 4.16421 12.75 3.75 12.75Z" fill="#666666"/>
<path d="M18.364 6.6967C18.0711 6.9896 17.5962 6.9896 17.3033 6.6967C17.0104 6.40381 17.0104 5.92894 17.3033 5.63604C17.5962 5.34315 18.0711 5.34315 18.364 5.63604C18.6569 5.92894 18.6569 6.40381 18.364 6.6967Z" fill="#666666"/>
<path d="M6.6967 18.364C6.40381 18.6569 5.92894 18.6569 5.63604 18.364C5.34315 18.0711 5.34315 17.5962 5.63604 17.3033C5.92894 17.0104 6.40381 17.0104 6.6967 17.3033C6.9896 17.5962 6.9896 18.0711 6.6967 18.364Z" fill="#666666"/>
<path d="M17.3033 18.3639C17.0104 18.071 17.0104 17.5961 17.3033 17.3032C17.5962 17.0103 18.0711 17.0103 18.364 17.3032C18.6569 17.5961 18.6569 18.071 18.364 18.3639C18.0711 18.6568 17.5962 18.6568 17.3033 18.3639Z" fill="#666666"/>
<path d="M5.63604 6.69663C5.34315 6.40373 5.34315 5.92886 5.63604 5.63596C5.92894 5.34307 6.40381 5.34307 6.6967 5.63597C6.9896 5.92886 6.9896 6.40373 6.6967 6.69663C6.40381 6.98952 5.92894 6.98952 5.63604 6.69663Z" fill="#666666"/>
</svg>
